<svg version="1.1" id="Layer_1" xmlns="http://www.w3.org/2000/svg" xmlns:xlink="http://www.w3.org/1999/xlink" x="0px" y="0px"
	 width="100%" viewBox="0 0 1000 1000" enable-background="new 0 0 1000 1000" xml:space="preserve">
<path fill="#020203" opacity="1.000000" stroke="none" 
	d="
M561.000000,1001.000000 
	C374.000000,1001.000000 187.500000,1001.000000 1.000000,1001.000000 
	C1.000000,667.666687 1.000000,334.333344 1.000000,1.000000 
	C334.333344,1.000000 667.666687,1.000000 1001.000000,1.000000 
	C1001.000000,334.333344 1001.000000,667.666687 1001.000000,1001.000000 
	C854.500000,1001.000000 708.000000,1001.000000 561.000000,1001.000000 
M181.499725,622.524170 
	C226.657166,622.492493 271.814606,622.460876 318.252197,622.428284 
	C312.470154,612.147705 307.514252,603.570312 302.813843,594.855103 
	C301.106293,591.689026 298.979584,590.630127 295.340973,590.644897 
	C254.687073,590.810486 214.032303,590.817444 173.377945,590.756104 
	C167.966705,590.747925 162.556366,590.124146 156.898758,589.769958 
	C157.066025,588.940674 157.036743,588.229858 157.338608,587.712158 
	C170.263763,565.546082 183.275360,543.429993 196.062271,521.184692 
	C197.097443,519.383789 197.571915,516.204407 196.681442,514.530029 
	C192.088852,505.894623 186.988052,497.528107 181.998611,489.106873 
	C181.407623,488.109375 180.413330,487.350830 179.072296,485.906891 
	C152.833984,531.621094 127.005959,576.620483 100.658905,622.524170 
	C128.243713,622.524170 154.371704,622.524170 181.499725,622.524170 
M215.621689,507.900482 
	C217.057907,510.325043 218.345840,512.856018 219.982635,515.136597 
	C221.068558,516.649719 222.623230,518.906677 224.020386,518.945435 
	C235.246109,519.256836 246.484283,519.119690 258.916351,519.119690 
	C232.554077,473.449097 206.378967,428.102753 179.640503,381.780487 
	C142.987656,445.279877 107.096046,507.460480 70.623138,570.648132 
	C78.801628,570.648132 85.360794,569.966675 91.722672,570.796936 
	C103.221329,572.297546 111.720276,569.647278 115.008926,557.386475 
	C115.050682,557.230835 115.168571,557.095398 115.251602,556.950928 
	C131.672638,528.373230 148.054291,499.772644 164.539673,471.232025 
	C169.309097,462.974884 174.376419,454.889832 179.987885,445.598816 
	C192.095596,466.816650 203.645966,487.057739 215.621689,507.900482 
M199.618927,570.676575 
	C248.938751,570.479797 298.258575,570.283081 348.269653,570.083618 
	C311.953125,507.049103 276.324768,445.209045 240.190781,382.491455 
	C238.598816,384.682465 237.555740,385.890289 236.764343,387.245117 
	C232.497116,394.550537 228.413300,401.966095 224.011719,409.188599 
	C222.008560,412.475586 222.428925,415.068298 224.292252,418.300629 
	C246.634033,457.057190 268.838593,495.892853 291.055725,534.721130 
	C291.672516,535.799133 292.030212,537.025452 292.714478,538.679993 
	C291.053650,538.759705 289.949768,538.852600 288.845306,538.859802 
	C267.192810,539.001099 245.540421,539.183289 223.887680,539.248779 
	C207.999069,539.296814 207.992630,539.223877 200.105179,553.010803 
	C196.943649,558.537170 193.816162,564.083008 190.071823,570.679321 
	C193.811478,570.679321 196.238846,570.679321 199.618927,570.676575 
M650.593384,504.184235 
	C649.812378,504.876312 649.031311,505.568390 647.668579,506.775940 
	C647.356506,503.621338 647.125488,501.285492 646.881836,498.822266 
	C644.338074,498.822266 642.135254,499.098206 640.029236,498.764252 
	C635.768494,498.088623 635.060669,500.037781 635.130493,503.812073 
	C635.352356,515.798340 635.228821,527.791077 635.233093,539.781311 
	C635.237122,551.079041 635.233948,562.376831 635.233948,573.978271 
	C639.638916,573.978271 643.712402,573.978271 648.125000,573.978271 
	C648.125000,570.887878 648.078369,568.073181 648.132874,565.260498 
	C648.394104,551.784363 648.175964,538.273499 649.109680,524.843262 
	C649.973694,512.415161 658.708740,506.515839 670.979614,508.866058 
	C676.251526,509.875732 678.884949,512.505676 678.978943,517.947327 
	C679.272278,534.925903 679.321899,551.908752 679.462524,568.889954 
	C679.475830,570.497498 679.464294,572.105225 679.464294,573.874207 
	C684.138184,573.874207 688.366028,573.874207 692.822937,573.874207 
	C692.822937,572.195007 692.818298,570.876465 692.823669,569.557922 
	C692.883789,554.904053 692.645325,540.241028 693.089050,525.598755 
	C693.555237,510.215820 705.487488,506.370514 717.067078,509.389709 
	C719.446533,510.010132 722.226929,513.476807 722.725403,516.039490 
	C723.856018,521.851562 723.918640,527.914917 723.988342,533.881042 
	C724.143555,547.169678 724.036804,560.461243 724.036804,573.857544 
	C728.712219,573.857544 732.937073,573.857544 737.020508,573.857544 
	C737.020508,555.164246 737.144653,536.848450 736.970337,518.535522 
	C736.877258,508.759003 731.663330,500.555054 724.180847,498.543427 
	C712.850586,495.497375 702.092102,496.149109 693.117371,504.997681 
	C692.347290,505.756958 691.282410,506.217224 690.401550,506.785980 
	C679.002441,494.561462 664.680115,493.498962 650.593384,504.184235 
M449.077698,513.477722 
	C445.691315,515.019775 442.413269,517.514832 438.896973,517.914795 
	C430.361450,518.885559 421.715149,518.881836 412.940491,519.278625 
	C412.940491,523.150879 412.940491,526.913879 412.940491,531.651794 
	C423.585480,531.089294 434.050659,531.027161 444.391724,529.862976 
	C456.722931,528.474731 464.620544,520.682861 466.519287,508.353455 
	C467.290558,503.345245 466.984924,498.017792 466.264069,492.964752 
	C464.716156,482.114319 458.285614,474.320496 447.507355,473.159790 
	C428.248383,471.085785 408.819122,470.593292 389.008484,469.412628 
	C389.008484,505.119476 389.008484,539.472778 389.008484,573.984436 
	C393.726166,573.984436 398.178833,573.984436 403.003296,573.984436 
	C403.003296,543.631531 403.003296,513.537537 403.003296,483.909424 
	C415.815155,483.909424 428.260834,483.569641 440.674164,484.055603 
	C446.700470,484.291595 450.750916,488.358887 451.794128,494.411743 
	C452.875610,500.686646 453.125366,507.033203 449.077698,513.477722 
M786.512817,497.042114 
	C784.514099,497.066925 782.508667,496.994049 780.517822,497.132172 
	C765.613708,498.166138 756.245361,506.357147 756.679810,521.540527 
	C758.095276,521.625305 759.561035,521.611694 760.995422,521.817017 
	C766.293762,522.575317 769.636780,521.067749 771.310425,515.334534 
	C772.040222,512.834351 775.185547,509.758667 777.663086,509.309052 
	C783.273376,508.290924 789.236938,508.055908 794.896362,508.771393 
	C801.674683,509.628326 803.832764,512.721008 803.945618,519.632385 
	C804.100586,529.124878 804.208191,538.630005 803.857178,548.112000 
	C803.747620,551.071411 802.652649,554.339539 801.034973,556.835083 
	C795.552612,565.292236 786.778931,565.640869 777.953308,565.185120 
	C771.384766,564.846069 767.655701,561.698364 767.039429,556.478333 
	C766.210449,549.455200 769.110779,544.706604 775.794861,543.042847 
	C781.725830,541.566528 787.781189,540.590027 794.012451,539.346802 
	C794.012451,536.068115 794.012451,532.713623 794.012451,528.849731 
	C787.141663,529.888733 780.720398,530.649536 774.384827,531.859314 
	C758.880066,534.819763 751.845947,544.508423 753.670898,559.939758 
	C754.392517,566.041565 757.506592,570.508118 762.956604,573.132812 
	C771.775208,577.379761 781.068420,577.310791 790.155151,574.557068 
	C795.197388,573.028992 799.796082,570.036926 804.847473,567.581848 
	C804.550842,569.708984 804.287231,571.599487 803.969543,573.877563 
	C808.599426,573.877563 812.840698,573.877563 817.002380,573.877563 
	C817.002380,554.176331 817.117737,534.702148 816.940491,515.230591 
	C816.877563,508.320709 813.482239,502.688660 806.899231,500.585236 
	C800.685120,498.599640 793.976440,498.161652 786.512817,497.042114 
M561.921753,509.615082 
	C557.059937,522.539429 561.777222,534.241699 575.548889,538.110168 
	C576.662964,538.423035 577.772156,538.754456 578.878662,539.093506 
	C586.151306,541.322021 593.479858,543.387878 600.671509,545.852905 
	C604.610474,547.203064 607.505188,549.834656 607.436890,554.559326 
	C607.367615,559.353943 604.877563,562.757385 600.454346,563.681946 
	C595.480896,564.721497 590.272705,564.973755 585.167297,564.968445 
	C577.479980,564.960449 573.645081,561.562256 571.706421,554.295898 
	C571.358459,552.991699 570.107056,551.088318 569.083374,550.958862 
	C565.725403,550.534241 562.280273,550.799316 558.877991,550.799316 
	C558.992493,564.396423 563.931396,571.988281 575.727112,574.810425 
	C586.314697,577.343567 597.147766,577.439392 607.603760,573.488159 
	C615.926025,570.343140 620.818726,563.496765 621.060486,555.000305 
	C621.351196,544.783569 617.888550,539.174377 608.645020,535.031128 
	C606.840149,534.222168 604.980042,533.487366 603.080383,532.947449 
	C596.395508,531.047607 589.656616,529.333923 582.994324,527.360291 
	C580.796021,526.709045 577.892395,526.034424 576.862488,524.395691 
	C575.241211,521.815918 573.920959,518.245178 574.385803,515.407349 
	C574.763977,513.098877 577.631592,510.073608 579.954590,509.450073 
	C584.351868,508.269745 589.164062,508.205109 593.779541,508.367645 
	C600.828247,508.615936 605.103149,512.331238 605.069824,519.825928 
	C609.792114,519.825928 613.888855,519.825928 617.991638,519.825928 
	C617.662903,508.422638 612.424683,500.745117 601.788452,498.707947 
	C594.432678,497.299133 586.600952,497.468750 579.078979,498.096527 
	C571.934265,498.692841 565.775208,502.127045 561.921753,509.615082 
M860.893005,541.545044 
	C865.766296,543.122253 870.844055,544.255493 875.463379,546.383911 
	C881.891052,549.345520 883.141907,558.384949 877.707153,561.876282 
	C870.347839,566.603943 862.039185,565.912659 854.036987,564.207825 
	C847.490662,562.813232 845.132080,557.405396 844.716553,551.066345 
	C840.287354,551.066345 836.230347,551.066345 832.165527,551.066345 
	C832.574280,562.462524 836.679138,570.064148 844.829163,573.177856 
	C857.241028,577.919861 869.909424,577.771057 882.255249,573.008362 
	C890.991516,569.638184 894.633545,562.323975 894.857422,553.305908 
	C895.066895,544.867065 890.522034,538.332642 882.089905,534.959412 
	C877.967407,533.310181 873.592102,532.299255 869.350525,530.939209 
	C863.380676,529.024902 857.188843,527.553101 851.589844,524.857727 
	C849.414062,523.810303 847.627808,520.032471 847.389038,517.345154 
	C847.052856,513.560974 849.290894,509.775513 853.397644,509.321136 
	C859.268188,508.671631 865.302490,508.623871 871.177368,509.212769 
	C874.857666,509.581726 877.804077,511.967438 878.188965,516.458862 
	C878.296021,517.708313 879.705505,519.740540 880.701172,519.858215 
	C884.234558,520.275696 887.847351,520.021057 891.454468,520.021057 
	C890.764282,508.947815 887.367737,502.798981 878.967163,499.755219 
	C866.974915,495.410126 854.789185,495.534027 843.179504,501.314362 
	C836.600342,504.590057 834.064453,510.515564 833.937866,517.756897 
	C833.806580,525.265503 835.568542,531.897522 842.855774,535.230774 
	C848.376160,537.755737 854.357910,539.272156 860.893005,541.545044 
M484.150787,535.499939 
	C484.150787,548.276062 484.150787,561.052185 484.150787,573.982544 
	C488.754486,573.982544 492.879486,573.982544 497.220673,573.982544 
	C497.220673,572.589539 497.205322,571.452026 497.222931,570.315125 
	C497.455322,555.330017 497.341583,540.328308 498.055206,525.366028 
	C498.507996,515.873840 504.592834,510.994812 514.151550,510.977051 
	C516.401550,510.972870 518.651489,510.976410 520.768311,510.976410 
	C520.768311,506.248688 520.768311,502.002930 520.768311,497.568909 
	C510.881134,496.051880 502.861755,498.627655 496.123413,507.611023 
	C496.123413,503.819275 496.123413,501.446381 496.123413,498.792542 
	C493.513092,498.792542 491.330170,499.064240 489.241455,498.736237 
	C484.837189,498.044556 483.965942,499.967102 484.073151,504.004089 
	C484.342896,514.162842 484.154968,524.333801 484.150787,535.499939 
M544.791748,504.768524 
	C544.665894,502.861053 544.540039,500.953583 544.418152,499.106323 
	C539.738708,499.106323 535.665100,499.106323 531.470581,499.106323 
	C531.470581,524.218872 531.470581,548.969788 531.470581,573.947388 
	C536.047241,573.947388 540.313049,573.947388 544.811279,573.947388 
	C544.811279,551.001465 544.811279,528.353943 544.791748,504.768524 
M540.960571,485.978516 
	C545.971069,484.041351 547.726196,480.071625 545.930054,473.983368 
	C544.491577,469.107452 540.325134,469.653656 536.518921,469.730560 
	C531.197754,469.838043 530.030457,473.218109 530.015564,477.760132 
	C529.992310,484.863007 531.389282,486.087646 540.960571,485.978516 
z"/>
<path fill="#FCFBFC" opacity="1.000000" stroke="none" 
	d="
M180.999725,622.524170 
	C154.371704,622.524170 128.243713,622.524170 100.658905,622.524170 
	C127.005959,576.620483 152.833984,531.621094 179.072296,485.906891 
	C180.413330,487.350830 181.407623,488.109375 181.998611,489.106873 
	C186.988052,497.528107 192.088852,505.894623 196.681442,514.530029 
	C197.571915,516.204407 197.097443,519.383789 196.062271,521.184692 
	C183.275360,543.429993 170.263763,565.546082 157.338608,587.712158 
	C157.036743,588.229858 157.066025,588.940674 156.898758,589.769958 
	C162.556366,590.124146 167.966705,590.747925 173.377945,590.756104 
	C214.032303,590.817444 254.687073,590.810486 295.340973,590.644897 
	C298.979584,590.630127 301.106293,591.689026 302.813843,594.855103 
	C307.514252,603.570312 312.470154,612.147705 318.252197,622.428284 
	C271.814606,622.460876 226.657166,622.492493 180.999725,622.524170 
z"/>
<path fill="#FDFDFD" opacity="1.000000" stroke="none" 
	d="
M215.409012,507.599670 
	C203.645966,487.057739 192.095596,466.816650 179.987885,445.598816 
	C174.376419,454.889832 169.309097,462.974884 164.539673,471.232025 
	C148.054291,499.772644 131.672638,528.373230 115.251602,556.950928 
	C115.168571,557.095398 115.050682,557.230835 115.008926,557.386475 
	C111.720276,569.647278 103.221329,572.297546 91.722672,570.796936 
	C85.360794,569.966675 78.801628,570.648132 70.623138,570.648132 
	C107.096046,507.460480 142.987656,445.279877 179.640503,381.780487 
	C206.378967,428.102753 232.554077,473.449097 258.916351,519.119690 
	C246.484283,519.119690 235.246109,519.256836 224.020386,518.945435 
	C222.623230,518.906677 221.068558,516.649719 219.982635,515.136597 
	C218.345840,512.856018 217.057907,510.325043 215.409012,507.599670 
z"/>
<path fill="#FCFCFC" opacity="1.000000" stroke="none" 
	d="
M199.142578,570.677979 
	C196.238846,570.679321 193.811478,570.679321 190.071823,570.679321 
	C193.816162,564.083008 196.943649,558.537170 200.105179,553.010803 
	C207.992630,539.223877 207.999069,539.296814 223.887680,539.248779 
	C245.540421,539.183289 267.192810,539.001099 288.845306,538.859802 
	C289.949768,538.852600 291.053650,538.759705 292.714478,538.679993 
	C292.030212,537.025452 291.672516,535.799133 291.055725,534.721130 
	C268.838593,495.892853 246.634033,457.057190 224.292252,418.300629 
	C222.428925,415.068298 222.008560,412.475586 224.011719,409.188599 
	C228.413300,401.966095 232.497116,394.550537 236.764343,387.245117 
	C237.555740,385.890289 238.598816,384.682465 240.190781,382.491455 
	C276.324768,445.209045 311.953125,507.049103 348.269653,570.083618 
	C298.258575,570.283081 248.938751,570.479797 199.142578,570.677979 
z"/>
<path fill="#FAFAF9" opacity="1.000000" stroke="none" 
	d="
M650.854248,503.926727 
	C664.680115,493.498962 679.002441,494.561462 690.401550,506.785980 
	C691.282410,506.217224 692.347290,505.756958 693.117371,504.997681 
	C702.092102,496.149109 712.850586,495.497375 724.180847,498.543427 
	C731.663330,500.555054 736.877258,508.759003 736.970337,518.535522 
	C737.144653,536.848450 737.020508,555.164246 737.020508,573.857544 
	C732.937073,573.857544 728.712219,573.857544 724.036804,573.857544 
	C724.036804,560.461243 724.143555,547.169678 723.988342,533.881042 
	C723.918640,527.914917 723.856018,521.851562 722.725403,516.039490 
	C722.226929,513.476807 719.446533,510.010132 717.067078,509.389709 
	C705.487488,506.370514 693.555237,510.215820 693.089050,525.598755 
	C692.645325,540.241028 692.883789,554.904053 692.823669,569.557922 
	C692.818298,570.876465 692.822937,572.195007 692.822937,573.874207 
	C688.366028,573.874207 684.138184,573.874207 679.464294,573.874207 
	C679.464294,572.105225 679.475830,570.497498 679.462524,568.889954 
	C679.321899,551.908752 679.272278,534.925903 678.978943,517.947327 
	C678.884949,512.505676 676.251526,509.875732 670.979614,508.866058 
	C658.708740,506.515839 649.973694,512.415161 649.109680,524.843262 
	C648.175964,538.273499 648.394104,551.784363 648.132874,565.260498 
	C648.078369,568.073181 648.125000,570.887878 648.125000,573.978271 
	C643.712402,573.978271 639.638916,573.978271 635.233948,573.978271 
	C635.233948,562.376831 635.237122,551.079041 635.233093,539.781311 
	C635.228821,527.791077 635.352356,515.798340 635.130493,503.812073 
	C635.060669,500.037781 635.768494,498.088623 640.029236,498.764252 
	C642.135254,499.098206 644.338074,498.822266 646.881836,498.822266 
	C647.125488,501.285492 647.356506,503.621338 647.668579,506.775940 
	C649.031311,505.568390 649.812378,504.876312 650.854248,503.926727 
z"/>
<path fill="#FCFCFC" opacity="1.000000" stroke="none" 
	d="
M449.243439,513.123169 
	C453.125366,507.033203 452.875610,500.686646 451.794128,494.411743 
	C450.750916,488.358887 446.700470,484.291595 440.674164,484.055603 
	C428.260834,483.569641 415.815155,483.909424 403.003296,483.909424 
	C403.003296,513.537537 403.003296,543.631531 403.003296,573.984436 
	C398.178833,573.984436 393.726166,573.984436 389.008484,573.984436 
	C389.008484,539.472778 389.008484,505.119476 389.008484,469.412628 
	C408.819122,470.593292 428.248383,471.085785 447.507355,473.159790 
	C458.285614,474.320496 464.716156,482.114319 466.264069,492.964752 
	C466.984924,498.017792 467.290558,503.345245 466.519287,508.353455 
	C464.620544,520.682861 456.722931,528.474731 444.391724,529.862976 
	C434.050659,531.027161 423.585480,531.089294 412.940491,531.651794 
	C412.940491,526.913879 412.940491,523.150879 412.940491,519.278625 
	C421.715149,518.881836 430.361450,518.885559 438.896973,517.914795 
	C442.413269,517.514832 445.691315,515.019775 449.243439,513.123169 
z"/>
<path fill="#FBFBFA" opacity="1.000000" stroke="none" 
	d="
M786.999084,497.042542 
	C793.976440,498.161652 800.685120,498.599640 806.899231,500.585236 
	C813.482239,502.688660 816.877563,508.320709 816.940491,515.230591 
	C817.117737,534.702148 817.002380,554.176331 817.002380,573.877563 
	C812.840698,573.877563 808.599426,573.877563 803.969543,573.877563 
	C804.287231,571.599487 804.550842,569.708984 804.847473,567.581848 
	C799.796082,570.036926 795.197388,573.028992 790.155151,574.557068 
	C781.068420,577.310791 771.775208,577.379761 762.956604,573.132812 
	C757.506592,570.508118 754.392517,566.041565 753.670898,559.939758 
	C751.845947,544.508423 758.880066,534.819763 774.384827,531.859314 
	C780.720398,530.649536 787.141663,529.888733 794.012451,528.849731 
	C794.012451,532.713623 794.012451,536.068115 794.012451,539.346802 
	C787.781189,540.590027 781.725830,541.566528 775.794861,543.042847 
	C769.110779,544.706604 766.210449,549.455200 767.039429,556.478333 
	C767.655701,561.698364 771.384766,564.846069 777.953308,565.185120 
	C786.778931,565.640869 795.552612,565.292236 801.034973,556.835083 
	C802.652649,554.339539 803.747620,551.071411 803.857178,548.112000 
	C804.208191,538.630005 804.100586,529.124878 803.945618,519.632385 
	C803.832764,512.721008 801.674683,509.628326 794.896362,508.771393 
	C789.236938,508.055908 783.273376,508.290924 777.663086,509.309052 
	C775.185547,509.758667 772.040222,512.834351 771.310425,515.334534 
	C769.636780,521.067749 766.293762,522.575317 760.995422,521.817017 
	C759.561035,521.611694 758.095276,521.625305 756.679810,521.540527 
	C756.245361,506.357147 765.613708,498.166138 780.517822,497.132172 
	C782.508667,496.994049 784.514099,497.066925 786.999084,497.042542 
z"/>
<path fill="#FAFAFA" opacity="1.000000" stroke="none" 
	d="
M562.033997,509.249451 
	C565.775208,502.127045 571.934265,498.692841 579.078979,498.096527 
	C586.600952,497.468750 594.432678,497.299133 601.788452,498.707947 
	C612.424683,500.745117 617.662903,508.422638 617.991638,519.825928 
	C613.888855,519.825928 609.792114,519.825928 605.069824,519.825928 
	C605.103149,512.331238 600.828247,508.615936 593.779541,508.367645 
	C589.164062,508.205109 584.351868,508.269745 579.954590,509.450073 
	C577.631592,510.073608 574.763977,513.098877 574.385803,515.407349 
	C573.920959,518.245178 575.241211,521.815918 576.862488,524.395691 
	C577.892395,526.034424 580.796021,526.709045 582.994324,527.360291 
	C589.656616,529.333923 596.395508,531.047607 603.080383,532.947449 
	C604.980042,533.487366 606.840149,534.222168 608.645020,535.031128 
	C617.888550,539.174377 621.351196,544.783569 621.060486,555.000305 
	C620.818726,563.496765 615.926025,570.343140 607.603760,573.488159 
	C597.147766,577.439392 586.314697,577.343567 575.727112,574.810425 
	C563.931396,571.988281 558.992493,564.396423 558.877991,550.799316 
	C562.280273,550.799316 565.725403,550.534241 569.083374,550.958862 
	C570.107056,551.088318 571.358459,552.991699 571.706421,554.295898 
	C573.645081,561.562256 577.479980,564.960449 585.167297,564.968445 
	C590.272705,564.973755 595.480896,564.721497 600.454346,563.681946 
	C604.877563,562.757385 607.367615,559.353943 607.436890,554.559326 
	C607.505188,549.834656 604.610474,547.203064 600.671509,545.852905 
	C593.479858,543.387878 586.151306,541.322021 578.878662,539.093506 
	C577.772156,538.754456 576.662964,538.423035 575.548889,538.110168 
	C561.777222,534.241699 557.059937,522.539429 562.033997,509.249451 
z"/>
<path fill="#FBFAFA" opacity="1.000000" stroke="none" 
	d="
M860.513672,541.391235 
	C854.357910,539.272156 848.376160,537.755737 842.855774,535.230774 
	C835.568542,531.897522 833.806580,525.265503 833.937866,517.756897 
	C834.064453,510.515564 836.600342,504.590057 843.179504,501.314362 
	C854.789185,495.534027 866.974915,495.410126 878.967163,499.755219 
	C887.367737,502.798981 890.764282,508.947815 891.454468,520.021057 
	C887.847351,520.021057 884.234558,520.275696 880.701172,519.858215 
	C879.705505,519.740540 878.296021,517.708313 878.188965,516.458862 
	C877.804077,511.967438 874.857666,509.581726 871.177368,509.212769 
	C865.302490,508.623871 859.268188,508.671631 853.397644,509.321136 
	C849.290894,509.775513 847.052856,513.560974 847.389038,517.345154 
	C847.627808,520.032471 849.414062,523.810303 851.589844,524.857727 
	C857.188843,527.553101 863.380676,529.024902 869.350525,530.939209 
	C873.592102,532.299255 877.967407,533.310181 882.089905,534.959412 
	C890.522034,538.332642 895.066895,544.867065 894.857422,553.305908 
	C894.633545,562.323975 890.991516,569.638184 882.255249,573.008362 
	C869.909424,577.771057 857.241028,577.919861 844.829163,573.177856 
	C836.679138,570.064148 832.574280,562.462524 832.165527,551.066345 
	C836.230347,551.066345 840.287354,551.066345 844.716553,551.066345 
	C845.132080,557.405396 847.490662,562.813232 854.036987,564.207825 
	C862.039185,565.912659 870.347839,566.603943 877.707153,561.876282 
	C883.141907,558.384949 881.891052,549.345520 875.463379,546.383911 
	C870.844055,544.255493 865.766296,543.122253 860.513672,541.391235 
z"/>
<path fill="#FAFAFA" opacity="1.000000" stroke="none" 
	d="
M484.150665,534.999878 
	C484.154968,524.333801 484.342896,514.162842 484.073151,504.004089 
	C483.965942,499.967102 484.837189,498.044556 489.241455,498.736237 
	C491.330170,499.064240 493.513092,498.792542 496.123413,498.792542 
	C496.123413,501.446381 496.123413,503.819275 496.123413,507.611023 
	C502.861755,498.627655 510.881134,496.051880 520.768311,497.568909 
	C520.768311,502.002930 520.768311,506.248688 520.768311,510.976410 
	C518.651489,510.976410 516.401550,510.972870 514.151550,510.977051 
	C504.592834,510.994812 498.507996,515.873840 498.055206,525.366028 
	C497.341583,540.328308 497.455322,555.330017 497.222931,570.315125 
	C497.205322,571.452026 497.220673,572.589539 497.220673,573.982544 
	C492.879486,573.982544 488.754486,573.982544 484.150787,573.982544 
	C484.150787,561.052185 484.150787,548.276062 484.150665,534.999878 
z"/>
<path fill="#F4F4F5" opacity="1.000000" stroke="none" 
	d="
M544.801514,505.237488 
	C544.811279,528.353943 544.811279,551.001465 544.811279,573.947388 
	C540.313049,573.947388 536.047241,573.947388 531.470581,573.947388 
	C531.470581,548.969788 531.470581,524.218872 531.470581,499.106323 
	C535.665100,499.106323 539.738708,499.106323 544.418152,499.106323 
	C544.540039,500.953583 544.665894,502.861053 544.801514,505.237488 
z"/>
<path fill="#FAFAF9" opacity="1.000000" stroke="none" 
	d="
M540.537109,486.015808 
	C531.389282,486.087646 529.992310,484.863007 530.015564,477.760132 
	C530.030457,473.218109 531.197754,469.838043 536.518921,469.730560 
	C540.325134,469.653656 544.491577,469.107452 545.930054,473.983368 
	C547.726196,480.071625 545.971069,484.041351 540.537109,486.015808 
z"/>
</svg>